<?xml version="1.0" standalone="no"?>
<!DOCTYPE svg PUBLIC "-//W3C//DTD SVG 20010904//EN"
 "http://www.w3.org/TR/2001/REC-SVG-20010904/DTD/svg10.dtd">
<svg version="1.0" xmlns="http://www.w3.org/2000/svg"
 width="14.000000pt" height="14.000000pt" viewBox="0 0 14.000000 14.000000"
 preserveAspectRatio="xMidYMid meet">

<g transform="translate(0.000000,14.000000) scale(0.100000,-0.100000)"
fill="#000000" stroke="none">
<path d="M2 73 l-2 -73 73 2 72 2 -67 3 -67 4 -4 67 -3 67 -2 -72z"/>
<path d="M73 70 c0 -25 2 -35 4 -22 2 12 2 32 0 45 -2 12 -4 2 -4 -23z"/>
<path d="M102 60 c0 -19 2 -27 5 -17 2 9 2 25 0 35 -3 9 -5 1 -5 -18z"/>
<path d="M42 50 c0 -14 2 -19 5 -12 2 6 2 18 0 25 -3 6 -5 1 -5 -13z"/>
</g>
</svg>
